# xmcd
#
# Track frame offsets:
#	150
#	3774
#	7465
#	10606
#	17032
#	22051
#	26184
#	32939
#	37758
#	41831
#	48934
#	53815
#	58036
#	64950
#	69501
#	73002
#	88626
#	97025
#	100944
#	105703
#	111497
#	116417
#	120641
#	126677
#	130790
#	135204
#	141666
#	145636
#	149781
#	157030
#	161316
#	164634
#	178132
#
# Disc length: 2468 seconds
#
# Revision: 1
# Processed by: cddbd v1.5.1PL0 Copyright (c) Steve Scherf et al.
# Submitted via: CDex 1.50Beta5
#
DISCID=e809a221
DTITLE=NHK - ビジネス英語4A
DYEAR=1900
DGENRE=
TTITLE0=ビジネス英語4A01
TTITLE1=ビジネス英語4A02
TTITLE2=ビジネス英語4A03
TTITLE3=ビジネス英語4A04
TTITLE4=ビジネス英語4A05
TTITLE5=ビジネス英語4A06
TTITLE6=ビジネス英語4A07
TTITLE7=ビジネス英語4A08
TTITLE8=ビジネス英語4A09
TTITLE9=ビジネス英語4A10
TTITLE10=ビジネス英語4A11
TTITLE11=ビジネス英語4A12
TTITLE12=ビジネス英語4A13
TTITLE13=ビジネス英語4A14
TTITLE14=ビジネス英語4A15
TTITLE15=ビジネス英語4A16
TTITLE16=ビジネス英語4A17
TTITLE17=ビジネス英語4A18
TTITLE18=ビジネス英語4A19
TTITLE19=ビジネス英語4A20
TTITLE20=ビジネス英語4A21
TTITLE21=ビジネス英語4A22
TTITLE22=ビジネス英語4A23
TTITLE23=ビジネス英語4A24
TTITLE24=ビジネス英語4A25
TTITLE25=ビジネス英語4A26
TTITLE26=ビジネス英語4A27
TTITLE27=ビジネス英語4A28
TTITLE28=ビジネス英語4A29
TTITLE29=ビジネス英語4A30
TTITLE30=ビジネス英語4A31
TTITLE31=ビジネス英語4A32
TTITLE32=ビジネス英語4A33
EXTD=
EXTT0=
EXTT1=
EXTT2=
EXTT3=
EXTT4=
EXTT5=
EXTT6=
EXTT7=
EXTT8=
EXTT9=
EXTT10=
EXTT11=
EXTT12=
EXTT13=
EXTT14=
EXTT15=
EXTT16=
EXTT17=
EXTT18=
EXTT19=
EXTT20=
EXTT21=
EXTT22=
EXTT23=
EXTT24=
EXTT25=
EXTT26=
EXTT27=
EXTT28=
EXTT29=
EXTT30=
EXTT31=
EXTT32=
PLAYORDER=
